<svg height="511pt" viewBox="1 0 511.99813 511" width="511pt" xmlns="http://www.w3.org/2000/svg">
    <path d="m482.835938 128.753906-25.863282-25.863281 18.097656-18.097656c3.585938 1.890625 7.597657 2.894531 11.761719 2.894531 6.75 0 13.09375-2.628906 17.867188-7.402344 9.738281-9.738281 9.726562-26.003906 0-35.730468 0 0-36.734375-36.734376-36.75-36.753907-9.742188-9.738281-26-9.734375-35.734375 0-7.710938 7.714844-9.597656 19.972657-4.507813 29.628907l-18.09375 18.097656-25.863281-25.859375c-14.082031-14.085938-37-14.085938-51.082031 0-9.011719 9.007812-12.625 22.503906-9.378907 34.8125-5.421874-.886719-11.839843-1.640625-18.792968-1.878907-26.859375-.917968-48.847656 6.402344-63.609375 21.164063-8.027344 8.027344-14.34375 15.996094-20.488281 25.84375-2.3125 3.722656-4.390626 7.363281-6.402344 10.882813-8.972656 15.714843-17.445313 30.554687-46.046875 50.902343-17.15625 12.195313-33.839844 25.121094-49.578125 38.414063-15.089844 12.75-29.609375 26.082031-43.152344 39.628906l-9.460938 9.457031c-2.929687 2.929688-2.929687 7.683594 0 10.613281 2.933594 2.929688 7.683594 2.929688 10.613282 0l9.457031-9.457031c11.675781-11.675781 24.09375-23.191406 36.980469-34.300781l163.945312 163.941406c-11.109375 12.890625-22.625 25.308594-34.300781 36.980469l-60.328125 60.332031c-14.230469 14.230469-37.386719 14.230469-51.617188 0 0 0-114.886718-114.890625-115.007812-115.011718-14.070312-14.070313-14.050781-37.566407 0-51.617188l29.648438-29.644531c2.929687-2.933594 2.929687-7.683594 0-10.613281-2.929688-2.929688-7.683594-2.929688-10.613282 0 0 0-29.625 29.625-29.648437 29.648437-19.859375 19.859375-19.839844 53 0 72.839844 0 0 114.925781 114.925781 115.011719 115.007812 19.847656 19.851563 53.019531 19.824219 72.839843 0l60.328125-60.328125c13.546875-13.546875 26.878906-28.066406 39.632813-43.15625 13.292969-15.742187 26.21875-32.421875 38.40625-49.574218 20.351562-28.601563 35.191406-37.078126 50.90625-46.050782 13.335937-7.617187 25.820312-15.984375 36.722656-26.886718 14.765625-14.765626 22.082031-36.761719 21.167969-63.613282-.238282-6.953125-.992188-13.367187-1.878906-18.789062 2.992187.789062 6.097656 1.203125 9.269531 1.203125 9.648437 0 18.722656-3.757813 25.542969-10.582031 14.082031-14.082032 14.082031-37 0-51.082032zm-40.007813-110.339844c3.953125-3.953124 10.5625-3.945312 14.507813 0 0 0 36.714843 36.714844 36.75 36.75 3.960937 3.957032 3.957031 10.550782 0 14.507813-3.957032 3.957031-10.554688 3.953125-14.507813 0 0 0-36.710937-36.710937-36.75-36.75-3.957031-3.957031-3.953125-10.550781 0-14.507813zm-5.304687 30.429688 26.136718 26.136719-17.296875 17.300781-26.140625-26.140625zm-108.648438 287.015625c-10.347656 14.554687-21.226562 28.761719-32.410156 42.316406l-162.140625-162.136719c13.558593-11.183593 27.761719-22.066406 42.320312-32.414062 31.296875-22.265625 41.003907-39.257812 50.382813-55.691406.421875-.734375.84375-1.476563 1.273437-2.222656l158.488281 158.492187c-.746093.425781-1.484374.851563-2.222656 1.269531-16.429687 9.382813-33.421875 19.085938-55.691406 50.386719zm143.347656-166.636719c-8.144531 8.144532-21.726562 8.136719-29.859375 0 0 0-19.917969-19.917968-19.925781-19.925781-2.804688-2.800781-7.660156-2.953125-10.613281 0-2.929688 2.929687-2.929688 7.683594 0 10.613281l18.5625 18.558594c2.585937 9.453125 13.746093 56.527344-12.261719 82.535156-6.84375 6.84375-13.023438 11.601563-18.1875 15.121094l-163.558594-163.5625c3.515625-5.160156 8.277344-11.339844 15.121094-18.183594 25.921875-25.925781 73.085938-14.824218 82.535156-12.253906l56.722656 56.71875c2.929688 2.929688 7.679688 2.929688 10.609376 0 2.902343-2.898438 2.898437-7.71875 0-10.613281 0 0-58.042969-58.046875-58.089844-58.09375-8.144532-8.144531-8.132813-21.722657 0-29.859375 8.234375-8.230469 21.628906-8.230469 29.859375 0l99.085937 99.085937c8.230469 8.234375 8.230469 21.628907 0 29.859375zm0 0" fill="#f9b820"/>
</svg>