<?xml version="1.0" encoding="iso-8859-1"?>
<!-- Generator: Adobe Illustrator 19.0.0, SVG Export Plug-In . SVG Version: 6.00 Build 0)  -->
<svg version="1.1" id="Capa_1" xmlns="http://www.w3.org/2000/svg" xmlns:xlink="http://www.w3.org/1999/xlink" x="0px" y="0px"
	 viewBox="0 0 512 512" style="enable-background:new 0 0 512 512;" xml:space="preserve">
<g>
	<g>
		<path d="M463.022,341.888H292.33l-20.017,70.057H238.58V30.023h-90.048v30.024h-33.808V0H24.675v210.144h90.049v-60.048h33.808
			V512h90.048v-70.056h33.733L292.33,512h170.692l24.303-85.056L463.022,341.888z M84.724,180.144H54.675V30h30.049V180.144z
			 M148.532,120.096h-33.808V90.048h33.808V120.096z M208.58,482h-30.048V60.023h30.048V482z M440.393,482H314.958l-11.445-40.056
			h74.162v-30h-74.162l11.445-40.057h125.435l15.73,55.057L440.393,482z" fill="#f9b820"/>
	</g>
</g>
</svg>
